<?xml version="1.0" standalone="no"?>
<!DOCTYPE svg PUBLIC "-//W3C//DTD SVG 20010904//EN"
 "http://www.w3.org/TR/2001/REC-SVG-20010904/DTD/svg10.dtd">
<svg version="1.0" xmlns="http://www.w3.org/2000/svg"
 width="445.000000pt" height="107.000000pt" viewBox="0 0 445.000000 107.000000"
 preserveAspectRatio="xMidYMid meet">

<g transform="translate(0.000000,107.000000) scale(0.100000,-0.100000)"
fill="#000000" stroke="none">
<path d="M215 1041 c-128 -31 -204 -156 -175 -286 22 -99 79 -149 220 -192
149 -45 200 -83 200 -149 0 -52 -19 -82 -67 -105 -51 -24 -100 -21 -162 11
-44 22 -130 112 -162 170 -13 22 -27 40 -32 40 -10 0 -2 -249 8 -259 3 -2 11
4 19 14 13 18 17 18 108 2 117 -21 170 -21 237 -1 173 51 229 294 95 412 -35
32 -69 48 -161 77 -64 21 -131 46 -148 56 -87 52 -60 167 45 190 86 19 157
-22 232 -137 23 -35 46 -64 50 -64 4 0 8 50 8 110 0 61 -2 110 -5 110 -3 0
-14 -5 -25 -12 -15 -10 -36 -9 -102 5 -87 18 -133 20 -183 8z"/>
<path d="M2513 957 l-83 -21 0 -68 0 -68 -30 0 c-20 0 -30 -5 -30 -15 0 -10
10 -15 29 -15 l30 0 3 -207 c3 -190 5 -210 23 -235 29 -39 70 -53 157 -53 62
0 82 4 105 21 31 23 57 65 67 107 10 44 -7 31 -34 -26 -32 -66 -71 -85 -101
-48 -17 21 -19 42 -19 232 l0 209 70 0 c56 0 70 3 70 15 0 12 -14 15 -70 15
l-70 0 0 90 c0 104 9 99 -117 67z"/>
<path d="M3789 911 c-24 -25 -29 -37 -29 -80 0 -50 0 -50 -26 -41 -33 13 -149
13 -196 0 -119 -33 -166 -185 -86 -276 17 -19 41 -37 54 -40 32 -8 30 -14 -19
-49 -23 -17 -50 -47 -60 -67 -16 -33 -17 -40 -3 -73 22 -52 61 -65 193 -65
121 0 178 -12 193 -40 43 -81 -55 -159 -188 -148 -79 7 -106 31 -110 100 -3
51 -6 57 -32 68 -74 31 -142 -59 -95 -127 26 -37 107 -57 235 -58 144 0 199
15 256 69 68 66 80 154 30 229 -37 55 -84 71 -221 75 -140 3 -165 7 -165 27 0
25 35 35 118 34 59 0 92 5 125 19 113 50 139 187 52 272 -29 29 -35 41 -35 78
0 56 14 82 45 82 29 0 32 -16 8 -42 -15 -17 -15 -19 2 -38 23 -25 76 -26 98
-2 23 25 21 74 -3 100 -32 34 -103 31 -141 -7z m-108 -158 c13 -35 11 -227 -3
-258 -7 -16 -19 -25 -33 -25 -42 0 -50 24 -50 157 0 118 1 126 23 143 27 23
50 16 63 -17z"/>
<path d="M867 798 c-154 -20 -236 -128 -224 -294 8 -105 43 -165 122 -207 32
-18 57 -22 130 -22 111 0 161 22 199 87 32 57 42 92 25 86 -7 -2 -17 -18 -21
-35 -4 -17 -26 -47 -48 -67 -34 -31 -47 -36 -88 -36 -86 1 -104 33 -110 192
-8 205 15 281 83 281 52 0 77 -74 28 -81 -20 -3 -23 -10 -23 -43 0 -59 35 -91
97 -87 57 4 84 34 85 97 1 100 -98 150 -255 129z"/>
<path d="M1385 799 c-128 -17 -212 -105 -223 -234 -15 -190 107 -307 304 -292
79 6 115 21 156 64 35 37 61 103 40 103 -4 0 -14 -15 -20 -34 -30 -81 -127
-125 -199 -89 -31 15 -41 28 -55 68 -9 28 -17 78 -18 113 l0 62 151 0 151 0
-4 59 c-10 135 -116 202 -283 180z m85 -45 c6 -14 10 -59 10 -100 l0 -74 -56
0 -57 0 5 78 c6 95 18 122 59 122 22 0 32 -6 39 -26z"/>
<path d="M2085 800 c-28 -5 -49 -19 -72 -45 l-32 -37 -3 39 -3 38 -127 0 c-77
0 -129 -4 -130 -10 -2 -5 9 -11 25 -13 l27 -3 0 -235 0 -234 -30 0 c-16 0 -30
-4 -30 -10 0 -6 58 -10 155 -10 97 0 155 4 155 10 0 6 -9 10 -20 10 -19 0 -20
7 -20 183 0 170 2 185 23 222 17 30 30 41 51 43 16 2 32 -2 37 -10 5 -7 9
-109 9 -225 0 -206 -1 -213 -20 -213 -11 0 -20 -4 -20 -10 0 -6 58 -10 155
-10 97 0 155 4 155 10 0 6 -16 10 -35 10 l-35 0 0 195 c0 176 -2 200 -20 235
-31 60 -105 87 -195 70z"/>
<path d="M2939 790 c-65 -19 -99 -62 -99 -123 1 -41 20 -65 59 -77 95 -27 166
69 99 133 -17 17 -18 21 -5 40 9 14 25 22 43 22 24 0 31 -6 41 -35 7 -19 12
-77 12 -127 l1 -93 -68 0 c-97 0 -168 -23 -193 -63 -27 -43 -21 -117 11 -152
59 -62 206 -58 241 6 l11 22 22 -26 c57 -67 213 -61 245 10 16 35 26 123 12
103 -6 -8 -11 -25 -11 -38 0 -34 -18 -62 -40 -62 -26 0 -29 17 -32 205 -4 187
-13 215 -81 246 -33 14 -64 18 -142 18 -55 0 -112 -4 -126 -9z m150 -354 c-3
-64 -8 -89 -22 -104 -34 -37 -47 -18 -47 68 0 73 2 80 26 99 15 12 31 21 36
21 6 0 9 -34 7 -84z"/>
<path d="M4087 786 c-61 -22 -107 -65 -134 -123 -22 -49 -25 -65 -21 -143 4
-76 8 -95 34 -136 40 -65 110 -103 202 -111 122 -10 204 23 242 97 32 63 23
80 -11 22 -36 -64 -97 -98 -157 -89 -68 12 -98 62 -109 182 l-6 75 157 0 c177
0 166 -7 145 90 -22 102 -93 150 -224 149 -44 0 -97 -6 -118 -13z m142 -25 c6
-10 13 -55 17 -100 l7 -81 -63 0 -62 0 7 78 c4 42 13 87 21 100 18 27 59 29
73 3z"/>
</g>
</svg>
